# xmcd
#
# Track frame offsets: 
#        150
#        22150
#        37684
#        56553
#        71952
#        89495
#        108145
#        121848
#        138996
#        155381
#        173076
#        195234
#        218024
#        236641
#
# Disc length: 3394 seconds
#
# Revision: 0
# Processed by: cddbd v1.4PL0 Copyright (c) Steve Scherf et al.
# Submitted via: ExactAudioCopy v0.90b4
#
DISCID=b60d400e
DTITLE=Thanh Thao - Sao Em Lam Ngo
DYEAR=2003
DGENRE=World
TTITLE0=Phu Giay Ky Niem
TTITLE1=Sao Em Lam Ngo
TTITLE2=Co Quen Duoc Dau
TTITLE3=Mat Bo Cau
TTITLE4=Loi Tinh Lan Cuoi
TTITLE5=Yeu
TTITLE6=Loi To Tinh De Thuong
TTITLE7=Yeu Mai Thoi
TTITLE8=Doi Long
TTITLE9=Oi Tinh Yeu
TTITLE10=Tinh Khuc Cho Nhau
TTITLE11=Xa Vang
TTITLE12=Tinh Mai Xanh
TTITLE13=Mai Ben Nhau
EXTD=
EXTT0=
EXTT1=
EXTT2=
EXTT3=
EXTT4=
EXTT5=
EXTT6=
EXTT7=
EXTT8=
EXTT9=
EXTT10=
EXTT11=
EXTT12=
EXTT13=
PLAYORDER=
